<mxfile host="65bd71144e">
    <diagram name="Page-1" id="utDwrU8_goMAkE8UMuTg">
        <mxGraphModel dx="1045" dy="726" grid="1" gridSize="10" guides="1" tooltips="1" connect="1" arrows="1" fold="1" page="1" pageScale="1" pageWidth="850" pageHeight="1100" math="0" shadow="0">
            <root>
                <mxCell id="0"/>
                <mxCell id="1" parent="0"/>
                <mxCell id="OTH4IosmnkzqZAKPpun9-1" value="Parody" style="rounded=0;whiteSpace=wrap;html=1;" parent="1" vertex="1">
                    <mxGeometry x="140" y="100" width="100" height="30" as="geometry"/>
                </mxCell>
                <mxCell id="OTH4IosmnkzqZAKPpun9-2" value="Music" style="rounded=0;whiteSpace=wrap;html=1;" parent="1" vertex="1">
                    <mxGeometry x="200" y="150" width="100" height="30" as="geometry"/>
                </mxCell>
                <mxCell id="OTH4IosmnkzqZAKPpun9-5" value="Romance" style="rounded=0;whiteSpace=wrap;html=1;" parent="1" vertex="1">
                    <mxGeometry x="15" y="340" width="100" height="30" as="geometry"/>
                </mxCell>
                <mxCell id="IEtlDrwHgsG_A0IL7Ucz-43" style="edgeStyle=none;html=1;exitX=0.5;exitY=1;exitDx=0;exitDy=0;entryX=0.5;entryY=0;entryDx=0;entryDy=0;" edge="1" parent="1" source="OTH4IosmnkzqZAKPpun9-6" target="OTH4IosmnkzqZAKPpun9-7">
                    <mxGeometry relative="1" as="geometry"/>
                </mxCell>
                <mxCell id="IEtlDrwHgsG_A0IL7Ucz-44" style="edgeStyle=none;html=1;exitX=0.5;exitY=1;exitDx=0;exitDy=0;entryX=0.5;entryY=0;entryDx=0;entryDy=0;" edge="1" parent="1" source="OTH4IosmnkzqZAKPpun9-6" target="OTH4IosmnkzqZAKPpun9-26">
                    <mxGeometry relative="1" as="geometry"/>
                </mxCell>
                <mxCell id="IEtlDrwHgsG_A0IL7Ucz-45" style="edgeStyle=none;html=1;exitX=0.5;exitY=1;exitDx=0;exitDy=0;entryX=0.5;entryY=0;entryDx=0;entryDy=0;" edge="1" parent="1" source="OTH4IosmnkzqZAKPpun9-6" target="OTH4IosmnkzqZAKPpun9-33">
                    <mxGeometry relative="1" as="geometry"/>
                </mxCell>
                <mxCell id="OTH4IosmnkzqZAKPpun9-6" value="Mystery" style="rounded=0;whiteSpace=wrap;html=1;" parent="1" vertex="1">
                    <mxGeometry x="385" y="550" width="100" height="30" as="geometry"/>
                </mxCell>
                <mxCell id="IEtlDrwHgsG_A0IL7Ucz-36" style="edgeStyle=none;html=1;exitX=0.5;exitY=1;exitDx=0;exitDy=0;entryX=0.5;entryY=0;entryDx=0;entryDy=0;" edge="1" parent="1" source="OTH4IosmnkzqZAKPpun9-7" target="OTH4IosmnkzqZAKPpun9-39">
                    <mxGeometry relative="1" as="geometry"/>
                </mxCell>
                <mxCell id="OTH4IosmnkzqZAKPpun9-7" value="Thriller" style="rounded=0;whiteSpace=wrap;html=1;" parent="1" vertex="1">
                    <mxGeometry x="145" y="630" width="100" height="30" as="geometry"/>
                </mxCell>
                <mxCell id="OTH4IosmnkzqZAKPpun9-8" value="Space" style="rounded=0;whiteSpace=wrap;html=1;" parent="1" vertex="1">
                    <mxGeometry x="690" y="100" width="100" height="30" as="geometry"/>
                </mxCell>
                <mxCell id="OTH4IosmnkzqZAKPpun9-10" value="Vampire" style="rounded=0;whiteSpace=wrap;html=1;" parent="1" vertex="1">
                    <mxGeometry x="495" y="690" width="100" height="30" as="geometry"/>
                </mxCell>
                <mxCell id="IEtlDrwHgsG_A0IL7Ucz-38" style="edgeStyle=none;html=1;exitX=0.5;exitY=1;exitDx=0;exitDy=0;entryX=0.5;entryY=0;entryDx=0;entryDy=0;" edge="1" parent="1" source="OTH4IosmnkzqZAKPpun9-14" target="OTH4IosmnkzqZAKPpun9-29">
                    <mxGeometry relative="1" as="geometry"/>
                </mxCell>
                <mxCell id="OTH4IosmnkzqZAKPpun9-14" value="Sports" style="rounded=0;whiteSpace=wrap;html=1;" parent="1" vertex="1">
                    <mxGeometry x="485" y="345" width="100" height="30" as="geometry"/>
                </mxCell>
                <mxCell id="OTH4IosmnkzqZAKPpun9-15" value="Drama" style="rounded=0;whiteSpace=wrap;html=1;" parent="1" vertex="1">
                    <mxGeometry x="380" y="100" width="100" height="30" as="geometry"/>
                </mxCell>
                <mxCell id="OTH4IosmnkzqZAKPpun9-16" value="Game" style="rounded=0;whiteSpace=wrap;html=1;" parent="1" vertex="1">
                    <mxGeometry x="365" y="340" width="100" height="30" as="geometry"/>
                </mxCell>
                <mxCell id="OTH4IosmnkzqZAKPpun9-17" value="Comedy" style="rounded=0;whiteSpace=wrap;html=1;" parent="1" vertex="1">
                    <mxGeometry x="260" y="100" width="100" height="30" as="geometry"/>
                </mxCell>
                <mxCell id="IEtlDrwHgsG_A0IL7Ucz-23" style="edgeStyle=none;html=1;exitX=0.5;exitY=1;exitDx=0;exitDy=0;entryX=0.5;entryY=0;entryDx=0;entryDy=0;" edge="1" parent="1" source="OTH4IosmnkzqZAKPpun9-18" target="OTH4IosmnkzqZAKPpun9-17">
                    <mxGeometry relative="1" as="geometry"/>
                </mxCell>
                <mxCell id="IEtlDrwHgsG_A0IL7Ucz-24" style="edgeStyle=none;html=1;exitX=0.5;exitY=1;exitDx=0;exitDy=0;entryX=0.5;entryY=0;entryDx=0;entryDy=0;" edge="1" parent="1" source="OTH4IosmnkzqZAKPpun9-18" target="OTH4IosmnkzqZAKPpun9-1">
                    <mxGeometry relative="1" as="geometry"/>
                </mxCell>
                <mxCell id="IEtlDrwHgsG_A0IL7Ucz-25" style="edgeStyle=none;html=1;exitX=0.5;exitY=1;exitDx=0;exitDy=0;entryX=0.5;entryY=0;entryDx=0;entryDy=0;" edge="1" parent="1" source="OTH4IosmnkzqZAKPpun9-18" target="OTH4IosmnkzqZAKPpun9-15">
                    <mxGeometry relative="1" as="geometry"/>
                </mxCell>
                <mxCell id="IEtlDrwHgsG_A0IL7Ucz-28" style="edgeStyle=none;html=1;exitX=0.5;exitY=1;exitDx=0;exitDy=0;entryX=0.5;entryY=0;entryDx=0;entryDy=0;" edge="1" parent="1" source="OTH4IosmnkzqZAKPpun9-18" target="OTH4IosmnkzqZAKPpun9-44">
                    <mxGeometry relative="1" as="geometry"/>
                </mxCell>
                <mxCell id="IEtlDrwHgsG_A0IL7Ucz-39" style="edgeStyle=none;html=1;exitX=0.5;exitY=1;exitDx=0;exitDy=0;entryX=0.5;entryY=0;entryDx=0;entryDy=0;" edge="1" parent="1" source="OTH4IosmnkzqZAKPpun9-18" target="OTH4IosmnkzqZAKPpun9-2">
                    <mxGeometry relative="1" as="geometry"/>
                </mxCell>
                <mxCell id="OTH4IosmnkzqZAKPpun9-18" value="Slice of Life" style="rounded=0;whiteSpace=wrap;html=1;" parent="1" vertex="1">
                    <mxGeometry x="200" y="30" width="100" height="30" as="geometry"/>
                </mxCell>
                <mxCell id="OTH4IosmnkzqZAKPpun9-19" value="Josei" style="rounded=0;whiteSpace=wrap;html=1;" parent="1" vertex="1">
                    <mxGeometry x="125" y="340" width="100" height="30" as="geometry"/>
                </mxCell>
                <mxCell id="OTH4IosmnkzqZAKPpun9-20" value="Super Power" style="rounded=0;whiteSpace=wrap;html=1;" parent="1" vertex="1">
                    <mxGeometry x="385" y="690" width="100" height="30" as="geometry"/>
                </mxCell>
                <mxCell id="OTH4IosmnkzqZAKPpun9-21" value="Magic" style="rounded=0;whiteSpace=wrap;html=1;" parent="1" vertex="1">
                    <mxGeometry x="265" y="690" width="100" height="30" as="geometry"/>
                </mxCell>
                <mxCell id="IEtlDrwHgsG_A0IL7Ucz-37" style="edgeStyle=none;html=1;exitX=0.5;exitY=1;exitDx=0;exitDy=0;entryX=0.5;entryY=0;entryDx=0;entryDy=0;" edge="1" parent="1" source="OTH4IosmnkzqZAKPpun9-26" target="OTH4IosmnkzqZAKPpun9-21">
                    <mxGeometry relative="1" as="geometry"/>
                </mxCell>
                <mxCell id="OTH4IosmnkzqZAKPpun9-26" value="Fantasy" style="rounded=0;whiteSpace=wrap;html=1;" parent="1" vertex="1">
                    <mxGeometry x="265" y="630" width="100" height="30" as="geometry"/>
                </mxCell>
                <mxCell id="OTH4IosmnkzqZAKPpun9-29" value="Cars" style="rounded=0;whiteSpace=wrap;html=1;" parent="1" vertex="1">
                    <mxGeometry x="485" y="395" width="100" height="30" as="geometry"/>
                </mxCell>
                <mxCell id="IEtlDrwHgsG_A0IL7Ucz-1" style="edgeStyle=none;html=1;exitX=0.321;exitY=0.319;exitDx=0;exitDy=0;entryX=0.5;entryY=0;entryDx=0;entryDy=0;exitPerimeter=0;" edge="1" parent="1" source="IEtlDrwHgsG_A0IL7Ucz-46" target="OTH4IosmnkzqZAKPpun9-30">
                    <mxGeometry relative="1" as="geometry">
                        <mxPoint x="175" y="190" as="sourcePoint"/>
                    </mxGeometry>
                </mxCell>
                <mxCell id="IEtlDrwHgsG_A0IL7Ucz-26" style="edgeStyle=none;html=1;exitX=0.5;exitY=1;exitDx=0;exitDy=0;entryX=0.5;entryY=0;entryDx=0;entryDy=0;" edge="1" parent="1" source="OTH4IosmnkzqZAKPpun9-30" target="OTH4IosmnkzqZAKPpun9-5">
                    <mxGeometry relative="1" as="geometry"/>
                </mxCell>
                <mxCell id="IEtlDrwHgsG_A0IL7Ucz-31" style="edgeStyle=none;html=1;exitX=0.5;exitY=1;exitDx=0;exitDy=0;entryX=0.5;entryY=0;entryDx=0;entryDy=0;" edge="1" parent="1" source="OTH4IosmnkzqZAKPpun9-30" target="OTH4IosmnkzqZAKPpun9-19">
                    <mxGeometry relative="1" as="geometry"/>
                </mxCell>
                <mxCell id="OTH4IosmnkzqZAKPpun9-30" value="Shoujo" style="rounded=0;whiteSpace=wrap;html=1;" parent="1" vertex="1">
                    <mxGeometry x="70" y="290" width="100" height="30" as="geometry"/>
                </mxCell>
                <mxCell id="IEtlDrwHgsG_A0IL7Ucz-2" style="edgeStyle=none;html=1;entryX=0.5;entryY=0;entryDx=0;entryDy=0;" edge="1" parent="1" source="IEtlDrwHgsG_A0IL7Ucz-46" target="OTH4IosmnkzqZAKPpun9-31">
                    <mxGeometry relative="1" as="geometry">
                        <mxPoint x="175" y="190" as="sourcePoint"/>
                    </mxGeometry>
                </mxCell>
                <mxCell id="IEtlDrwHgsG_A0IL7Ucz-10" style="edgeStyle=none;html=1;" edge="1" parent="1" source="OTH4IosmnkzqZAKPpun9-31" target="OTH4IosmnkzqZAKPpun9-38">
                    <mxGeometry relative="1" as="geometry"/>
                </mxCell>
                <mxCell id="OTH4IosmnkzqZAKPpun9-31" value="Seinen" style="rounded=0;whiteSpace=wrap;html=1;" parent="1" vertex="1">
                    <mxGeometry x="730" y="285" width="100" height="30" as="geometry"/>
                </mxCell>
                <mxCell id="OTH4IosmnkzqZAKPpun9-32" value="Demons" style="rounded=0;whiteSpace=wrap;html=1;" parent="1" vertex="1">
                    <mxGeometry x="605" y="690" width="100" height="30" as="geometry"/>
                </mxCell>
                <mxCell id="IEtlDrwHgsG_A0IL7Ucz-32" style="edgeStyle=none;html=1;exitX=0.5;exitY=1;exitDx=0;exitDy=0;entryX=0.5;entryY=0;entryDx=0;entryDy=0;" edge="1" parent="1" source="OTH4IosmnkzqZAKPpun9-33" target="OTH4IosmnkzqZAKPpun9-20">
                    <mxGeometry relative="1" as="geometry"/>
                </mxCell>
                <mxCell id="IEtlDrwHgsG_A0IL7Ucz-33" style="edgeStyle=none;html=1;exitX=0.5;exitY=1;exitDx=0;exitDy=0;entryX=0.5;entryY=0;entryDx=0;entryDy=0;" edge="1" parent="1" source="OTH4IosmnkzqZAKPpun9-33" target="OTH4IosmnkzqZAKPpun9-32">
                    <mxGeometry relative="1" as="geometry"/>
                </mxCell>
                <mxCell id="IEtlDrwHgsG_A0IL7Ucz-34" style="edgeStyle=none;html=1;exitX=0.5;exitY=1;exitDx=0;exitDy=0;entryX=0.5;entryY=0;entryDx=0;entryDy=0;" edge="1" parent="1" source="OTH4IosmnkzqZAKPpun9-33" target="OTH4IosmnkzqZAKPpun9-10">
                    <mxGeometry relative="1" as="geometry"/>
                </mxCell>
                <mxCell id="OTH4IosmnkzqZAKPpun9-33" value="Supernatural" style="rounded=0;whiteSpace=wrap;html=1;" parent="1" vertex="1">
                    <mxGeometry x="495" y="630" width="100" height="30" as="geometry"/>
                </mxCell>
                <mxCell id="IEtlDrwHgsG_A0IL7Ucz-3" style="edgeStyle=none;html=1;exitX=0.75;exitY=0.414;exitDx=0;exitDy=0;entryX=0.5;entryY=0;entryDx=0;entryDy=0;exitPerimeter=0;" edge="1" parent="1" source="IEtlDrwHgsG_A0IL7Ucz-46" target="OTH4IosmnkzqZAKPpun9-34">
                    <mxGeometry relative="1" as="geometry">
                        <mxPoint x="175" y="190" as="sourcePoint"/>
                    </mxGeometry>
                </mxCell>
                <mxCell id="IEtlDrwHgsG_A0IL7Ucz-22" style="edgeStyle=none;html=1;exitX=0.5;exitY=1;exitDx=0;exitDy=0;entryX=0.5;entryY=0;entryDx=0;entryDy=0;" edge="1" parent="1" source="OTH4IosmnkzqZAKPpun9-34" target="IEtlDrwHgsG_A0IL7Ucz-14">
                    <mxGeometry relative="1" as="geometry"/>
                </mxCell>
                <mxCell id="IEtlDrwHgsG_A0IL7Ucz-40" style="edgeStyle=none;html=1;exitX=0.5;exitY=1;exitDx=0;exitDy=0;entryX=0.5;entryY=0;entryDx=0;entryDy=0;" edge="1" parent="1" source="OTH4IosmnkzqZAKPpun9-34" target="OTH4IosmnkzqZAKPpun9-16">
                    <mxGeometry relative="1" as="geometry"/>
                </mxCell>
                <mxCell id="IEtlDrwHgsG_A0IL7Ucz-41" style="edgeStyle=none;html=1;exitX=0.5;exitY=1;exitDx=0;exitDy=0;entryX=0.5;entryY=0;entryDx=0;entryDy=0;" edge="1" parent="1" source="OTH4IosmnkzqZAKPpun9-34" target="OTH4IosmnkzqZAKPpun9-14">
                    <mxGeometry relative="1" as="geometry"/>
                </mxCell>
                <mxCell id="IEtlDrwHgsG_A0IL7Ucz-42" style="edgeStyle=none;html=1;exitX=0.5;exitY=1;exitDx=0;exitDy=0;entryX=0.5;entryY=0;entryDx=0;entryDy=0;" edge="1" parent="1" source="OTH4IosmnkzqZAKPpun9-34" target="OTH4IosmnkzqZAKPpun9-40">
                    <mxGeometry relative="1" as="geometry"/>
                </mxCell>
                <mxCell id="OTH4IosmnkzqZAKPpun9-34" value="Shounen" style="rounded=0;whiteSpace=wrap;html=1;" parent="1" vertex="1">
                    <mxGeometry x="425" y="280" width="100" height="30" as="geometry"/>
                </mxCell>
                <mxCell id="OTH4IosmnkzqZAKPpun9-35" value="Mecha" style="rounded=0;whiteSpace=wrap;html=1;" parent="1" vertex="1">
                    <mxGeometry x="530" y="100" width="100" height="30" as="geometry"/>
                </mxCell>
                <mxCell id="OTH4IosmnkzqZAKPpun9-38" value="Psychological" style="rounded=0;whiteSpace=wrap;html=1;" parent="1" vertex="1">
                    <mxGeometry x="730" y="345" width="100" height="30" as="geometry"/>
                </mxCell>
                <mxCell id="OTH4IosmnkzqZAKPpun9-39" value="Horror" style="rounded=0;whiteSpace=wrap;html=1;" parent="1" vertex="1">
                    <mxGeometry x="145" y="690" width="100" height="30" as="geometry"/>
                </mxCell>
                <mxCell id="OTH4IosmnkzqZAKPpun9-40" value="Adventure" style="rounded=0;whiteSpace=wrap;html=1;" parent="1" vertex="1">
                    <mxGeometry x="605" y="345" width="100" height="30" as="geometry"/>
                </mxCell>
                <mxCell id="IEtlDrwHgsG_A0IL7Ucz-29" style="edgeStyle=none;html=1;exitX=0.5;exitY=1;exitDx=0;exitDy=0;entryX=0.5;entryY=0;entryDx=0;entryDy=0;" edge="1" parent="1" source="OTH4IosmnkzqZAKPpun9-43" target="OTH4IosmnkzqZAKPpun9-35">
                    <mxGeometry relative="1" as="geometry"/>
                </mxCell>
                <mxCell id="IEtlDrwHgsG_A0IL7Ucz-30" style="edgeStyle=none;html=1;exitX=0.5;exitY=1;exitDx=0;exitDy=0;entryX=0.5;entryY=0;entryDx=0;entryDy=0;" edge="1" parent="1" source="OTH4IosmnkzqZAKPpun9-43" target="OTH4IosmnkzqZAKPpun9-8">
                    <mxGeometry relative="1" as="geometry"/>
                </mxCell>
                <mxCell id="OTH4IosmnkzqZAKPpun9-43" value="Sci-Fi" style="rounded=0;whiteSpace=wrap;html=1;" parent="1" vertex="1">
                    <mxGeometry x="610" y="30" width="100" height="30" as="geometry"/>
                </mxCell>
                <mxCell id="OTH4IosmnkzqZAKPpun9-44" value="School" style="rounded=0;whiteSpace=wrap;html=1;" parent="1" vertex="1">
                    <mxGeometry x="20" y="100" width="100" height="30" as="geometry"/>
                </mxCell>
                <mxCell id="IEtlDrwHgsG_A0IL7Ucz-11" style="edgeStyle=none;html=1;exitX=0.5;exitY=1;exitDx=0;exitDy=0;entryX=0.5;entryY=0;entryDx=0;entryDy=0;" edge="1" parent="1" source="IEtlDrwHgsG_A0IL7Ucz-14" target="IEtlDrwHgsG_A0IL7Ucz-15">
                    <mxGeometry relative="1" as="geometry"/>
                </mxCell>
                <mxCell id="IEtlDrwHgsG_A0IL7Ucz-12" style="edgeStyle=none;html=1;exitX=0.5;exitY=1;exitDx=0;exitDy=0;entryX=0.5;entryY=0;entryDx=0;entryDy=0;" edge="1" parent="1" source="IEtlDrwHgsG_A0IL7Ucz-14" target="IEtlDrwHgsG_A0IL7Ucz-21">
                    <mxGeometry relative="1" as="geometry"/>
                </mxCell>
                <mxCell id="IEtlDrwHgsG_A0IL7Ucz-13" style="edgeStyle=none;html=1;exitX=0.5;exitY=1;exitDx=0;exitDy=0;entryX=0.5;entryY=0;entryDx=0;entryDy=0;" edge="1" parent="1" source="IEtlDrwHgsG_A0IL7Ucz-14" target="IEtlDrwHgsG_A0IL7Ucz-17">
                    <mxGeometry relative="1" as="geometry"/>
                </mxCell>
                <mxCell id="IEtlDrwHgsG_A0IL7Ucz-14" value="Action" style="rounded=0;whiteSpace=wrap;html=1;" vertex="1" parent="1">
                    <mxGeometry x="245" y="340" width="100" height="30" as="geometry"/>
                </mxCell>
                <mxCell id="IEtlDrwHgsG_A0IL7Ucz-15" value="Martial Arts" style="rounded=0;whiteSpace=wrap;html=1;" vertex="1" parent="1">
                    <mxGeometry x="125" y="410" width="100" height="30" as="geometry"/>
                </mxCell>
                <mxCell id="IEtlDrwHgsG_A0IL7Ucz-16" style="edgeStyle=none;html=1;exitX=0.5;exitY=1;exitDx=0;exitDy=0;entryX=0.5;entryY=0;entryDx=0;entryDy=0;" edge="1" parent="1" source="IEtlDrwHgsG_A0IL7Ucz-17" target="IEtlDrwHgsG_A0IL7Ucz-19">
                    <mxGeometry relative="1" as="geometry"/>
                </mxCell>
                <mxCell id="IEtlDrwHgsG_A0IL7Ucz-17" value="Police" style="rounded=0;whiteSpace=wrap;html=1;" vertex="1" parent="1">
                    <mxGeometry x="365" y="410" width="100" height="30" as="geometry"/>
                </mxCell>
                <mxCell id="IEtlDrwHgsG_A0IL7Ucz-18" value="Samurai" style="rounded=0;whiteSpace=wrap;html=1;" vertex="1" parent="1">
                    <mxGeometry x="245" y="470" width="100" height="30" as="geometry"/>
                </mxCell>
                <mxCell id="IEtlDrwHgsG_A0IL7Ucz-19" value="Military" style="rounded=0;whiteSpace=wrap;html=1;" vertex="1" parent="1">
                    <mxGeometry x="365" y="470" width="100" height="30" as="geometry"/>
                </mxCell>
                <mxCell id="IEtlDrwHgsG_A0IL7Ucz-20" style="edgeStyle=none;html=1;exitX=0.5;exitY=1;exitDx=0;exitDy=0;entryX=0.5;entryY=0;entryDx=0;entryDy=0;" edge="1" parent="1" source="IEtlDrwHgsG_A0IL7Ucz-21" target="IEtlDrwHgsG_A0IL7Ucz-18">
                    <mxGeometry relative="1" as="geometry"/>
                </mxCell>
                <mxCell id="IEtlDrwHgsG_A0IL7Ucz-21" value="Historical" style="rounded=0;whiteSpace=wrap;html=1;" vertex="1" parent="1">
                    <mxGeometry x="245" y="410" width="100" height="30" as="geometry"/>
                </mxCell>
                <mxCell id="IEtlDrwHgsG_A0IL7Ucz-46" value="" style="shape=waypoint;sketch=0;fillStyle=solid;size=6;pointerEvents=1;points=[];fillColor=none;resizable=0;rotatable=0;perimeter=centerPerimeter;snapToPoint=1;" vertex="1" parent="1">
                    <mxGeometry x="465" y="200" width="20" height="20" as="geometry"/>
                </mxCell>
            </root>
        </mxGraphModel>
    </diagram>
    <diagram name="Copy of Page-1" id="59PII9HWpfZlovXzyupa">
        <mxGraphModel dx="1097" dy="762" grid="1" gridSize="10" guides="1" tooltips="1" connect="1" arrows="1" fold="1" page="1" pageScale="1" pageWidth="850" pageHeight="1100" math="0" shadow="0">
            <root>
                <mxCell id="XeTJtYJtfuagwq0LGunk-0"/>
                <mxCell id="XeTJtYJtfuagwq0LGunk-1" parent="XeTJtYJtfuagwq0LGunk-0"/>
                <mxCell id="XeTJtYJtfuagwq0LGunk-2" value="Parody" style="rounded=0;whiteSpace=wrap;html=1;" vertex="1" parent="XeTJtYJtfuagwq0LGunk-1">
                    <mxGeometry x="230" y="350" width="100" height="30" as="geometry"/>
                </mxCell>
                <mxCell id="XeTJtYJtfuagwq0LGunk-3" value="Music" style="rounded=0;whiteSpace=wrap;html=1;" vertex="1" parent="XeTJtYJtfuagwq0LGunk-1">
                    <mxGeometry x="110" y="665" width="100" height="30" as="geometry"/>
                </mxCell>
                <mxCell id="XeTJtYJtfuagwq0LGunk-4" value="Action" style="rounded=0;whiteSpace=wrap;html=1;" vertex="1" parent="XeTJtYJtfuagwq0LGunk-1">
                    <mxGeometry x="70" y="350" width="100" height="30" as="geometry"/>
                </mxCell>
                <mxCell id="XeTJtYJtfuagwq0LGunk-5" value="Romance" style="rounded=0;whiteSpace=wrap;html=1;" vertex="1" parent="XeTJtYJtfuagwq0LGunk-1">
                    <mxGeometry x="230" y="470" width="100" height="30" as="geometry"/>
                </mxCell>
                <mxCell id="XeTJtYJtfuagwq0LGunk-6" value="Mystery" style="rounded=0;whiteSpace=wrap;html=1;" vertex="1" parent="XeTJtYJtfuagwq0LGunk-1">
                    <mxGeometry x="800" y="710" width="100" height="30" as="geometry"/>
                </mxCell>
                <mxCell id="XeTJtYJtfuagwq0LGunk-7" value="Thriller" style="rounded=0;whiteSpace=wrap;html=1;" vertex="1" parent="XeTJtYJtfuagwq0LGunk-1">
                    <mxGeometry x="800" y="750" width="100" height="30" as="geometry"/>
                </mxCell>
                <mxCell id="XeTJtYJtfuagwq0LGunk-8" value="Space" style="rounded=0;whiteSpace=wrap;html=1;" vertex="1" parent="XeTJtYJtfuagwq0LGunk-1">
                    <mxGeometry x="420" y="530" width="100" height="30" as="geometry"/>
                </mxCell>
                <mxCell id="XeTJtYJtfuagwq0LGunk-9" value="Vampire" style="rounded=0;whiteSpace=wrap;html=1;" vertex="1" parent="XeTJtYJtfuagwq0LGunk-1">
                    <mxGeometry x="800" y="790" width="100" height="30" as="geometry"/>
                </mxCell>
                <mxCell id="XeTJtYJtfuagwq0LGunk-10" value="Martial Arts" style="rounded=0;whiteSpace=wrap;html=1;" vertex="1" parent="XeTJtYJtfuagwq0LGunk-1">
                    <mxGeometry x="70" y="500" width="100" height="30" as="geometry"/>
                </mxCell>
                <mxCell id="XeTJtYJtfuagwq0LGunk-11" value="Sports" style="rounded=0;whiteSpace=wrap;html=1;" vertex="1" parent="XeTJtYJtfuagwq0LGunk-1">
                    <mxGeometry x="280" y="770" width="100" height="30" as="geometry"/>
                </mxCell>
                <mxCell id="XeTJtYJtfuagwq0LGunk-12" value="Drama" style="rounded=0;whiteSpace=wrap;html=1;" vertex="1" parent="XeTJtYJtfuagwq0LGunk-1">
                    <mxGeometry x="230" y="410" width="100" height="30" as="geometry"/>
                </mxCell>
                <mxCell id="XeTJtYJtfuagwq0LGunk-13" value="Game" style="rounded=0;whiteSpace=wrap;html=1;" vertex="1" parent="XeTJtYJtfuagwq0LGunk-1">
                    <mxGeometry x="280" y="740" width="100" height="30" as="geometry"/>
                </mxCell>
                <mxCell id="XeTJtYJtfuagwq0LGunk-14" value="Comedy" style="rounded=0;whiteSpace=wrap;html=1;" vertex="1" parent="XeTJtYJtfuagwq0LGunk-1">
                    <mxGeometry x="230" y="380" width="100" height="30" as="geometry"/>
                </mxCell>
                <mxCell id="XeTJtYJtfuagwq0LGunk-15" value="Slice of Life" style="rounded=0;whiteSpace=wrap;html=1;" vertex="1" parent="XeTJtYJtfuagwq0LGunk-1">
                    <mxGeometry x="230" y="320" width="100" height="30" as="geometry"/>
                </mxCell>
                <mxCell id="XeTJtYJtfuagwq0LGunk-16" value="Josei" style="rounded=0;whiteSpace=wrap;html=1;" vertex="1" parent="XeTJtYJtfuagwq0LGunk-1">
                    <mxGeometry x="400" y="350" width="100" height="30" as="geometry"/>
                </mxCell>
                <mxCell id="XeTJtYJtfuagwq0LGunk-17" value="Super Power" style="rounded=0;whiteSpace=wrap;html=1;" vertex="1" parent="XeTJtYJtfuagwq0LGunk-1">
                    <mxGeometry x="900" y="790" width="100" height="30" as="geometry"/>
                </mxCell>
                <mxCell id="XeTJtYJtfuagwq0LGunk-18" value="Magic" style="rounded=0;whiteSpace=wrap;html=1;" vertex="1" parent="XeTJtYJtfuagwq0LGunk-1">
                    <mxGeometry x="900" y="830" width="100" height="30" as="geometry"/>
                </mxCell>
                <mxCell id="XeTJtYJtfuagwq0LGunk-19" value="Police" style="rounded=0;whiteSpace=wrap;html=1;" vertex="1" parent="XeTJtYJtfuagwq0LGunk-1">
                    <mxGeometry x="70" y="410" width="100" height="30" as="geometry"/>
                </mxCell>
                <mxCell id="XeTJtYJtfuagwq0LGunk-20" value="Fantasy" style="rounded=0;whiteSpace=wrap;html=1;" vertex="1" parent="XeTJtYJtfuagwq0LGunk-1">
                    <mxGeometry x="850" y="670" width="100" height="30" as="geometry"/>
                </mxCell>
                <mxCell id="XeTJtYJtfuagwq0LGunk-21" value="Samurai" style="rounded=0;whiteSpace=wrap;html=1;" vertex="1" parent="XeTJtYJtfuagwq0LGunk-1">
                    <mxGeometry x="70" y="380" width="100" height="30" as="geometry"/>
                </mxCell>
                <mxCell id="XeTJtYJtfuagwq0LGunk-22" value="Dementia" style="rounded=0;whiteSpace=wrap;html=1;" vertex="1" parent="XeTJtYJtfuagwq0LGunk-1">
                    <mxGeometry x="450" y="840" width="100" height="30" as="geometry"/>
                </mxCell>
                <mxCell id="XeTJtYJtfuagwq0LGunk-23" value="Cars" style="rounded=0;whiteSpace=wrap;html=1;" vertex="1" parent="XeTJtYJtfuagwq0LGunk-1">
                    <mxGeometry x="280" y="800" width="100" height="30" as="geometry"/>
                </mxCell>
                <mxCell id="XeTJtYJtfuagwq0LGunk-24" value="Shoujo" style="rounded=0;whiteSpace=wrap;html=1;" vertex="1" parent="XeTJtYJtfuagwq0LGunk-1">
                    <mxGeometry x="710" y="290" width="100" height="30" as="geometry"/>
                </mxCell>
                <mxCell id="XeTJtYJtfuagwq0LGunk-25" value="Seinen" style="rounded=0;whiteSpace=wrap;html=1;" vertex="1" parent="XeTJtYJtfuagwq0LGunk-1">
                    <mxGeometry x="900" y="290" width="100" height="30" as="geometry"/>
                </mxCell>
                <mxCell id="XeTJtYJtfuagwq0LGunk-26" value="Demons" style="rounded=0;whiteSpace=wrap;html=1;" vertex="1" parent="XeTJtYJtfuagwq0LGunk-1">
                    <mxGeometry x="800" y="830" width="100" height="30" as="geometry"/>
                </mxCell>
                <mxCell id="XeTJtYJtfuagwq0LGunk-27" value="Supernatural" style="rounded=0;whiteSpace=wrap;html=1;" vertex="1" parent="XeTJtYJtfuagwq0LGunk-1">
                    <mxGeometry x="900" y="750" width="100" height="30" as="geometry"/>
                </mxCell>
                <mxCell id="XeTJtYJtfuagwq0LGunk-28" value="Shounen" style="rounded=0;whiteSpace=wrap;html=1;" vertex="1" parent="XeTJtYJtfuagwq0LGunk-1">
                    <mxGeometry x="1100" y="290" width="100" height="30" as="geometry"/>
                </mxCell>
                <mxCell id="XeTJtYJtfuagwq0LGunk-29" value="Mecha" style="rounded=0;whiteSpace=wrap;html=1;" vertex="1" parent="XeTJtYJtfuagwq0LGunk-1">
                    <mxGeometry x="270" y="620" width="100" height="30" as="geometry"/>
                </mxCell>
                <mxCell id="XeTJtYJtfuagwq0LGunk-30" value="Kids" style="rounded=0;whiteSpace=wrap;html=1;" vertex="1" parent="XeTJtYJtfuagwq0LGunk-1">
                    <mxGeometry x="470" y="470" width="100" height="30" as="geometry"/>
                </mxCell>
                <mxCell id="XeTJtYJtfuagwq0LGunk-31" value="Psychological" style="rounded=0;whiteSpace=wrap;html=1;" vertex="1" parent="XeTJtYJtfuagwq0LGunk-1">
                    <mxGeometry x="230" y="440" width="100" height="30" as="geometry"/>
                </mxCell>
                <mxCell id="XeTJtYJtfuagwq0LGunk-32" value="Horror" style="rounded=0;whiteSpace=wrap;html=1;" vertex="1" parent="XeTJtYJtfuagwq0LGunk-1">
                    <mxGeometry x="900" y="710" width="100" height="30" as="geometry"/>
                </mxCell>
                <mxCell id="XeTJtYJtfuagwq0LGunk-33" value="Adventure" style="rounded=0;whiteSpace=wrap;html=1;" vertex="1" parent="XeTJtYJtfuagwq0LGunk-1">
                    <mxGeometry x="400" y="290" width="100" height="30" as="geometry"/>
                </mxCell>
                <mxCell id="XeTJtYJtfuagwq0LGunk-34" value="Military" style="rounded=0;whiteSpace=wrap;html=1;" vertex="1" parent="XeTJtYJtfuagwq0LGunk-1">
                    <mxGeometry x="70" y="470" width="100" height="30" as="geometry"/>
                </mxCell>
                <mxCell id="XeTJtYJtfuagwq0LGunk-35" value="Sci-Fi" style="rounded=0;whiteSpace=wrap;html=1;" vertex="1" parent="XeTJtYJtfuagwq0LGunk-1">
                    <mxGeometry x="270" y="590" width="100" height="30" as="geometry"/>
                </mxCell>
                <mxCell id="XeTJtYJtfuagwq0LGunk-36" value="School" style="rounded=0;whiteSpace=wrap;html=1;" vertex="1" parent="XeTJtYJtfuagwq0LGunk-1">
                    <mxGeometry x="120" y="755" width="100" height="30" as="geometry"/>
                </mxCell>
                <mxCell id="XeTJtYJtfuagwq0LGunk-37" value="Historical" style="rounded=0;whiteSpace=wrap;html=1;" vertex="1" parent="XeTJtYJtfuagwq0LGunk-1">
                    <mxGeometry x="70" y="440" width="100" height="30" as="geometry"/>
                </mxCell>
                <mxCell id="XeTJtYJtfuagwq0LGunk-38" value="Mythic" style="text;html=1;strokeColor=none;fillColor=none;align=center;verticalAlign=middle;whiteSpace=wrap;rounded=0;" vertex="1" parent="XeTJtYJtfuagwq0LGunk-1">
                    <mxGeometry x="750" y="670" width="60" height="30" as="geometry"/>
                </mxCell>
            </root>
        </mxGraphModel>
    </diagram>
</mxfile>